<svg viewBox="0 0 1024 1024" width="400" height="400" xmlns="http://www.w3.org/2000/svg">
  <defs>
    <linearGradient id="unifiedPlanetGrad" x1="350" y1="80" x2="650" y2="800" gradientUnits="userSpaceOnUse">
      <stop offset="0%" stop-color="#FF9EBB" />
      <stop offset="100%" stop-color="#E2547E" />
    </linearGradient>

    <linearGradient id="gelLight" x1="0%" y1="0%" x2="0%" y2="100%">
      <stop offset="0%" stop-color="#FFFFFF" stop-opacity="0.85" />
      <stop offset="100%" stop-color="#FFFFFF" stop-opacity="0.0" />
    </linearGradient>

    <mask id="orbitMask">
      <rect x="0" y="0" width="1024" height="1024" fill="#FFFFFF" />
      <g transform="rotate(-25 512 512)">
        <path d="M 192 512 A 320 320 0 0 1 832 512 Z" fill="#000000" />
      </g>
    </mask>
  </defs>

  <g id="planetAndAntenna">
    <g stroke="url(#unifiedPlanetGrad)" stroke-width="54" stroke-linecap="round">
      <line x1="390" y1="220" x2="440" y2="80" />
      <line x1="570" y1="200" x2="620" y2="60" />
    </g>
    <circle cx="512" cy="512" r="320" fill="url(#unifiedPlanetGrad)" />
  </g>

  <ellipse cx="380" cy="320" rx="150" ry="70" transform="rotate(-35 380 320)" fill="url(#gelLight)" />

  <g fill="#B52D53" transform="translate(-75, -83)">
    <path d="M450.803484 456.506027 l-120.670435 23.103715 l10.333298 45.288107 l119.454151-23.102578 l-9.117014-45.289244 z" />
    <path d="M515.847964 576.566613 c-29.483236 63.220622-55.926329 15.502222-55.926328 15.502223 l-19.754098 12.768142 s38.90176 53.192249 75.986489 12.764729 c43.770311 40.42752 77.203911-13.068516 77.203911-13.068516 l-17.934791-11.55072 c0.001138-0.304924-31.305956 44.983182-59.575183-16.415858 z" />
    <path d="M575.424284 501.792996 L695.182222 524.895573 l10.029511-45.288106 l-120.364373-23.103716 l-9.423076 45.289245 z" />
  </g>

  <g fill="#FFFFFF" transform="translate(-80, -90)">
    <path d="M450.803484 456.506027 l-120.670435 23.103715 l10.333298 45.288107 l119.454151-23.102578 l-9.117014-45.289244 z" />
    <path d="M515.847964 576.566613 c-29.483236 63.220622-55.926329 15.502222-55.926328 15.502223 l-19.754098 12.768142 s38.90176 53.192249 75.986489 12.764729 c43.770311 40.42752 77.203911-13.068516 77.203911-13.068516 l-17.934791-11.55072 c0.001138-0.304924-31.305956 44.983182-59.575183-16.415858 z" />
    <path d="M575.424284 501.792996 L695.182222 524.895573 l10.029511-45.288106 l-120.364373-23.103716 l-9.423076 45.289245 z" />
  </g>

  <g mask="url(#orbitMask)">
    <ellipse 
      cx="512" 
      cy="512" 
      rx="460" 
      ry="160" 
      transform="rotate(-25 512 512)" 
      fill="none" 
      stroke="#FB7299" 
      stroke-width="68" 
    />
  </g>
</svg>
